<svg id="Calque_1" data-name="Calque 1" xmlns="http://www.w3.org/2000/svg" xmlns:xlink="http://www.w3.org/1999/xlink" viewBox="0 0 466.52 451.26"><defs><style>.cls-1,.cls-2,.cls-3,.cls-4,.cls-5{stroke:#000;stroke-miterlimit:10;stroke-width:0.25px;}.cls-1{fill:url(#Dégradé_sans_nom_51);}.cls-2{fill:url(#Dégradé_sans_nom_51-2);}.cls-3{fill:url(#Dégradé_sans_nom_51-3);}.cls-4{fill:url(#Dégradé_sans_nom_117);}.cls-5{fill:url(#Dégradé_sans_nom_80);}</style><linearGradient id="Dégradé_sans_nom_51" x1="109.44" y1="255.03" x2="509.46" y2="485.98" gradientUnits="userSpaceOnUse"><stop offset="0" stop-color="#ff00f9"/><stop offset="1" stop-color="#00fffb"/></linearGradient><linearGradient id="Dégradé_sans_nom_51-2" x1="195.33" y1="314.6" x2="438.41" y2="454.94" xlink:href="#Dégradé_sans_nom_51"/><linearGradient id="Dégradé_sans_nom_51-3" x1="211.11" y1="240.28" x2="450.13" y2="378.28" xlink:href="#Dégradé_sans_nom_51"/><linearGradient id="Dégradé_sans_nom_117" x1="273.49" y1="464.5" x2="358.3" y2="513.47" gradientUnits="userSpaceOnUse"><stop offset="0.25" stop-color="#5da2f8"/><stop offset="0.54" stop-color="#2ed1fa"/></linearGradient><linearGradient id="Dégradé_sans_nom_80" x1="184.63" y1="474.58" x2="283.55" y2="513.8" gradientUnits="userSpaceOnUse"><stop offset="0" stop-color="#ac54f8"/><stop offset="0.88" stop-color="#ab55f8"/></linearGradient></defs><title>logo</title><path class="cls-1" d="M76,368.45A196,196,0,0,1,84.38,311c4.66-15.21,10.16-30.27,18.19-44.09,5.25-9,10.41-18.23,16.92-26.49,10.87-13.8,22.49-26.95,35.94-38.3A234.43,234.43,0,0,1,190.7,177.3c28.32-16.11,58.61-26.67,91-30.68a236.25,236.25,0,0,1,41.69-1.79,229.51,229.51,0,0,1,133.91,52,274.59,274.59,0,0,1,35.33,34.88c6.62,7.84,12.07,16.39,17.73,24.88,7.79,11.69,12.9,24.6,18.22,37.48,7.26,17.6,10.4,36,12,54.81.71,8.46,1.93,16.89,1.61,25.39-.86,22.61-3.94,44.92-11.55,66.29-4.8,13.45-10,26.88-17.65,39.05-5.27,8.37-10.3,17-16.75,24.55-11.13,13.06-22.6,25.87-35.76,36.93a236.36,236.36,0,0,1-41.15,27.79,229.93,229.93,0,0,1-66.28,22.82c-10.79,2-21.72,2.69-32.67,3.4-23.75,1.53-47-1.28-70-6.87a227.68,227.68,0,0,1-55.63-21.47,233.94,233.94,0,0,1-72-60.29C116,498.12,110.62,489,105,479.92c-8.1-12.9-13-27.08-18.15-41.27-6.12-16.95-8.64-34.51-10.24-52.31C76.1,381.19,76.1,376.05,76,368.45Zm11.62,2.77a186.82,186.82,0,0,0,1.11,21.11c2.26,22.14,6.7,43.69,16.51,63.9,5.32,11,10.35,22.07,17.78,31.92,5.67,7.52,10.75,15.47,17.45,22.23,6,6,11.26,12.61,18,18,6.17,4.93,12,10.23,18.55,14.75a235.86,235.86,0,0,0,35,20,227.89,227.89,0,0,0,53.33,16.84,245.15,245.15,0,0,0,42.37,4,203.12,203.12,0,0,0,25.1-1.44,236.77,236.77,0,0,0,58-14,215.64,215.64,0,0,0,51.83-28.29A240.54,240.54,0,0,0,478.63,507c6.12-6.82,11.34-14.38,16.6-21.85,7.53-10.71,12.86-22.71,18.61-34.43,2.9-5.91,4.77-12.27,6.78-18.55,5.54-17.34,8.38-35.22,10-53.27,1.19-13.81-.4-27.58-2.36-41.27-2.92-20.32-7.84-40-17.38-58.38-5.59-10.75-11-21.52-18.17-31.38a233.64,233.64,0,0,0-22.93-27.36,220.49,220.49,0,0,0-30.92-25.77,218.2,218.2,0,0,0-24-14.49,224.54,224.54,0,0,0-50.76-19,211.41,211.41,0,0,0-47-6.09c-9-.1-17.9.42-26.84,1.09a212.35,212.35,0,0,0-48.45,9.58,231.14,231.14,0,0,0-69.17,36.1c-12.9,9.72-24.28,21.14-35,33.23-6.58,7.45-12,15.8-17.61,24-7.38,10.71-12.88,22.56-17.87,34.5C92.08,317.65,87.47,343,87.61,371.22Z" transform="translate(-75.86 -144.43)"/><path class="cls-2" d="M370,427.14c-2.9-1.54-5.78-3.12-8.71-4.6-9.36-4.72-18.64-9.6-28.12-14.11-8.35-4-16.52-8.31-24.78-12.49-9.35-4.74-18.73-9.43-28.05-14.24-3.05-1.57-5.92-3.48-8.9-5.19a168.31,168.31,0,0,1-27-19.69c-6-5.24-10.58-11.69-15-18.29C220.18,325,216.71,309.86,217,293.79a66.38,66.38,0,0,1,9.37-33A85.46,85.46,0,0,1,265.09,226c9.75-4.46,19.58-8.62,30-11.24,23.71-6,47.35-6,70.86,1.35,10.89,3.39,21.48,7.38,30.77,14.18,12.4,9.06,20.83,20.74,22.72,36.28A47.46,47.46,0,0,1,407,305.4c-10,11.05-23.24,16.29-37.89,18.18-9.65,1.24-19.07.56-28-3.48a60.35,60.35,0,0,1-12.26-7.3,4.41,4.41,0,0,1-.86-.75c-.57-.74-1.5-1.54-.92-2.49.49-.79,1.6-.46,2.41-.28,5.22,1.13,10.38,2.54,15.72,3,16.31,1.51,31.37-1.52,43.2-13.64,10.52-10.79,10.68-30.11-2-39.65-10.46-7.88-22.53-11.37-35.18-13.41-8.82-1.41-17.69-.49-26.53-.57a9.23,9.23,0,0,1-3.69-.26c.06-1,.92-.83,1.48-1,6.68-1.58,13.38-3.12,20-4.72.85-.2,2.23-.09,2.24-1.32s-1.3-1.22-2.16-1.53a6.87,6.87,0,0,0-2-.37c-19.89-.86-39.21,1.36-57.45,10.1-9.76,4.68-18.57,10.66-25.72,18.72-12,13.5-13.73,29.19-9.12,46.15,3.83,14.08,13.48,23.38,24.85,31.4,6.47,4.57,13.48,8.28,20.13,12.58a6.28,6.28,0,0,1,2.8,2.4,42.19,42.19,0,0,1-8.54-3.3c-9.24-4.76-18.44-9.59-27.65-14.4-1.16-.6-2.5-1.78-3.53-.27s.51,2.53,1.54,3.48c7.09,6.58,15.59,10.76,24.19,15s17.23,8.18,25.78,12.4c20,9.88,40.41,19,60.91,27.78,9.57,4.12,19.11,8.22,27.67,14.22a87.2,87.2,0,0,1,25.93,28.16c6.69,11.61,8,23.59,3.17,35.7-4,10.2-11.13,18.52-19.79,25.47-13.64,10.95-29.5,17.37-45.69,23.21a249,249,0,0,1-42.48,11.51,146.85,146.85,0,0,1-20.41,1.93c12.12-2.07,24.21-4.18,36.14-7.11a244.89,244.89,0,0,0,34.81-11.27,107.34,107.34,0,0,0,27.65-15.91,13.16,13.16,0,0,0,3-3c.35-.55.84-1.21.38-1.84s-1.26-.3-1.85-.05c-3.88,1.59-7.86,3-11.59,4.88C361,516.35,334.52,523.21,307.11,527c-17,2.33-34.06,4.27-51.27,3.85-16.38-.4-32.49-2.59-48-8.39-8.29-3.12-13.77-8.83-15.94-17.4-1.2-4.73.87-9.24,2.28-13.63,3-9.39,9.28-16.43,16.89-22.56A130.55,130.55,0,0,1,241.63,451c3.12-1.35,6.35-2.41,9.87-3.74-.17,1.8-1.3,2.07-2.14,2.42-7.68,3.21-14.82,7.45-22,11.61A77.21,77.21,0,0,0,216,470c-6,5.18-11.76,10.55-15.13,18a29.07,29.07,0,0,0-2.67,15.6c.79,6.83,5.53,10.28,11.31,12.83,10.78,4.76,22.21,6.05,33.8,6.34,7.91.2,15.84.21,23.76.08a288.2,288.2,0,0,0,80.21-13c8.76-2.69,17.41-5.7,25.85-9.23,11.92-5,22-12.4,31.18-21.73,9.77-9.95,7.72-25.93.79-35.08-4.83-6.37-9.74-12.55-16.44-16.94a119.25,119.25,0,0,0-22.9-11.67c-5-1.91-9.84-4.14-14.77-6.21a3.84,3.84,0,0,0-2.49-.43c-1.56.4-2.18,1.3-1.05,2.67a10.54,10.54,0,0,0,2.39,2c6.76,4.46,13.55,8.87,20.33,13.3Z" transform="translate(-75.86 -144.43)"/><path class="cls-3" d="M398.13,468.34c-1.21-.12-1.74-1.11-2.31-1.93-9.23-13.19-21.35-23.06-35.6-30.24-26.49-13.34-53.16-26.34-79.68-39.63a303.73,303.73,0,0,1-31.63-17.85c-6.78-4.48-13-9.59-19.41-14.58-6.63-5.2-11.73-11.64-17-18a77.91,77.91,0,0,1-17.62-43.94c-1.71-20.31,1.81-39.72,13.58-56.78,7.82-11.34,18.28-20.11,30-27.43a148.28,148.28,0,0,1,59-21.44,187.81,187.81,0,0,1,43.95-.42,21.53,21.53,0,0,1,2.24.42c.16,0,.28.23.62.53-1.27.94-2.62.59-3.83.55-13.57-.38-27.08-.08-40.43,2.82A164.5,164.5,0,0,0,267,210.87a124.62,124.62,0,0,0-37.49,25.75,84.28,84.28,0,0,0-17.69,26.75,82.39,82.39,0,0,0-2.66,60.06c4,12.09,10,23.53,19.29,32.73.75.73,1.36,1.59,2.07,2.37a143.58,143.58,0,0,0,37.51,29.22c11.07,6,22.51,11.28,33.75,16.94,16.09,8.12,32.4,15.8,48.32,24.27,10.35,5.52,20.71,11,30.51,17.47,7.3,4.8,13.19,10.93,16.91,19A4.83,4.83,0,0,1,398.13,468.34Z" transform="translate(-75.86 -144.43)"/><path class="cls-4" d="M242.89,517.5c2.16-1.23,4.36-1,6.48-.82,9.65.91,19.23-.2,28.81-1a210.75,210.75,0,0,0,38-6.66,160.81,160.81,0,0,0,33.59-12.85,58,58,0,0,0,20.1-17,16.35,16.35,0,0,0,2.44-13.94c-2.14-8.69-7.72-15.16-14.41-20.75-2.07-1.73-4.41-3.14-6.69-4.74a2.86,2.86,0,0,1,2.23.46c8.6,4.23,16.09,9.92,21.65,17.76,7.36,10.37,5.7,22.27-4.19,30.34a84.85,84.85,0,0,1-14.38,9.84C347,503,337,506.23,326.81,509.19a241.3,241.3,0,0,1-79.19,9.05c-1.14,0-2.27-.24-3.4-.4A10.38,10.38,0,0,1,242.89,517.5Z" transform="translate(-75.86 -144.43)"/><path class="cls-5" d="M238.29,445.49c-3.75,1.85-6.93,3.44-10.13,5-12.15,5.85-23.66,12.59-33.44,22.14a63.62,63.62,0,0,0-13.82,19.44c-3.52,7.77-3.3,15.36,1.76,22.51a88.66,88.66,0,0,0,10.87,12.76c-1,1-1.83.43-2.51.12-10.24-4.67-18.16-11.35-19.05-23.53-.52-7.17,2.48-13.33,6.11-19.27,7.72-12.65,19.14-21.1,31.88-27.93,7.72-4.15,15.9-7.4,24-10.75A5,5,0,0,1,238.29,445.49Z" transform="translate(-75.86 -144.43)"/></svg>